<svg xmlns="http://www.w3.org/2000/svg" width="24.621" height="20" viewBox="0 0 24.621 20">
  <path id="Path_470" data-name="Path 470" d="M24.622,59.807a10.086,10.086,0,0,1-2.9.8,5.072,5.072,0,0,0,2.22-2.793,10.182,10.182,0,0,1-3.209,1.226,5.055,5.055,0,0,0-8.606,4.6,14.339,14.339,0,0,1-10.41-5.277A5.057,5.057,0,0,0,3.28,65.106a5.051,5.051,0,0,1-2.288-.634v.063a5.056,5.056,0,0,0,4.051,4.953,5.115,5.115,0,0,1-1.331.177,4.848,4.848,0,0,1-.951-.094,5.053,5.053,0,0,0,4.717,3.508,10.133,10.133,0,0,1-6.273,2.159A10.734,10.734,0,0,1,0,75.169a14.276,14.276,0,0,0,7.742,2.272,14.271,14.271,0,0,0,14.37-14.37l-.017-.654A10.086,10.086,0,0,0,24.622,59.807Z" transform="translate(-0.001 -57.441)" fill="#fcfcfc"/>
</svg>
