<svg xmlns="http://www.w3.org/2000/svg" width="132.677" height="60" viewBox="0 0 132.677 60">
  <g id="Full_Logo" data-name="Full Logo" transform="translate(-0.22)">
    <path id="Path_392" data-name="Path 392" d="M35.369,7.94A4.735,4.735,0,0,0,31.3,9.845L30.859,8.13H28v16.1h3.462l.067-11.646c2.414-2.636,7.048-2.3,6.826,2.118v9.529h3.3V14.705c.032-2.7,1.62-3.812,3.462-3.812,1.811,0,3.43,1.08,3.43,3.907v9.434h3.4v-9.37c0-5.146-3.081-6.956-6.829-6.956a5.671,5.671,0,0,0-5.114,2.7A4.93,4.93,0,0,0,35.369,7.94ZM70.928,24.234V8.13H67.466V19.883c-2.636,3.017-7.75,1.4-7.75-2.668V8.13H56.254v9.084a7,7,0,0,0,7.306,7.274,4.889,4.889,0,0,0,4.066-2.033l.445,1.779Zm9.92-9.688c-1.016-.222-2.509-.413-2.541-1.81-.032-1.461,1.493-1.906,2.541-1.906A4.771,4.771,0,0,1,83.9,12.037L85.8,9.909a6.733,6.733,0,0,0-5.019-2.128c-2.986,0-5.844,1.747-5.844,4.923.032,3.049,2.478,4.352,5.146,4.8,1.08.191,2.732.667,2.732,2.223,0,1.366-1.525,1.81-2.732,1.747a4.947,4.947,0,0,1-3.43-1.969L74.5,21.6a6.741,6.741,0,0,0,5.686,2.986c2.6,0,6-1.271,6-4.955C86.184,16.484,83.58,15.055,80.848,14.546ZM93.282,5.875V2H89.756V5.875ZM89.788,8.067V24.234H93.25V8.067Zm21.741,2.35a8.222,8.222,0,0,0-6-2.6A8.092,8.092,0,0,0,97.172,16.2c0,4.383,2.859,8.385,8.354,8.385a8.735,8.735,0,0,0,6.13-2.732l-1.969-2.128a5.577,5.577,0,0,1-4.161,1.715c-3.208,0-4.923-2.414-4.923-5.177.032-3.494,2.414-5.3,4.892-5.273a5.616,5.616,0,0,1,4.1,1.588Z" transform="translate(21.241 1.529)" fill="#fff"/>
    <path id="Path_393" data-name="Path 393" d="M25.977,0V6.243c0,7.3.023,14.622-.023,21.92a2.209,2.209,0,0,0,1.286,2.25c3.741,2.066,7.411,4.269,11.117,6.427.176.115.367.252.706.482-5.509,3.19-10.881,6.289-16.526,9.548V6.037C20.93,6.954,19.6,7.69,18.292,8.424,13.881,10.949,9.5,13.521,5.072,16a2.223,2.223,0,0,0-1.331,2.227c.046,7.851.046,15.677,0,23.528a1.953,1.953,0,0,0,1.1,1.906c7,4.016,13.321,7.817,20.323,11.812a1.941,1.941,0,0,0,2.218,0c2.788-1.486,12.606-7.088,19.188-10.847,2.809-1.606,2.705-2.165,2.709-4.8.011-9.225-.04-27.12-.04-27.12l3.532,3.254s0,20.5.019,27.952a1.7,1.7,0,0,1-.986,1.7Q39.583,52.633,27.384,59.727a1.553,1.553,0,0,1-1.791-.023Q13.646,52.783,1.652,45.91A2.395,2.395,0,0,1,.228,43.523C.3,34.41.274,25.321.251,16.208a2.13,2.13,0,0,1,1.17-2.181C8.656,9.968,15.813,5.809,23.02,1.7,23.936,1.17,24.853.665,25.977,0Z" transform="translate(0)" fill="#fff"/>
    <path id="Path_394" data-name="Path 394" d="M42.42,27.571c0-4.955-3.24-8.036-7.147-8.1a5.835,5.835,0,0,0-3.875,1.3V13.5H28V35.734l1.765-.176,1.126-1.539a4.778,4.778,0,0,0,4.129,1.969C39.371,36.052,42.42,32.621,42.42,27.571Zm-7.655,5.368a3.439,3.439,0,0,1-3.4-1.874V23.41a5.817,5.817,0,0,1,3.145-.921c3.145.064,4.542,2.478,4.542,5.4C39.054,30.43,37.592,32.939,34.766,32.939ZM49.115,27.7a4.881,4.881,0,0,1,4.955-5.209A4.824,4.824,0,0,1,58.994,27.7a4.879,4.879,0,0,1-4.923,5.273A4.937,4.937,0,0,1,49.115,27.7Zm13.341,0a8.4,8.4,0,0,0-16.8,0,8.4,8.4,0,0,0,16.8,0Zm9.324-2-3.812-6.1H63.934l5.4,8.068-5.5,8.068h3.716l4.193-6.1,4.066,6.1h3.78L74.13,27.666l5.4-8.068H75.782Z" transform="translate(21.241 10.322)" fill="#fff"/>
  </g>
</svg>
